<?xml version="1.0" encoding="utf-8"?>
<!-- Generator: Adobe Illustrator 16.0.0, SVG Export Plug-In . SVG Version: 6.00 Build 0)  -->
<!DOCTYPE svg PUBLIC "-//W3C//DTD SVG 1.1//EN" "http://www.w3.org/Graphics/SVG/1.1/DTD/svg11.dtd">
<svg version="1.1" id="Layer_1" xmlns="http://www.w3.org/2000/svg" xmlns:xlink="http://www.w3.org/1999/xlink" x="0px" y="0px"
	 width="400px" height="500px" viewBox="20.5 -19.5 400 500" enable-background="new 20.5 -19.5 400 500" xml:space="preserve">
<g>
	<path fill="#1B1B17" d="M132.797,141.536c5.333-29.115-2.686-42.557-2.686-42.557l6.223-11.423l-11.119-2.861l-0.655-10.258
		l-53.016,5.501l0.774,7.478c-15.629,11.543-22.884,32.468-20.424,56.203l-12.508,2.462l3.906,27.228l14.769-0.347l0.919,25.893
		l16.604,3.519l6.187-30.072l14.35,0.339l4.459,27.781l18.146-1.312l3.047-29.543l20.947-3.269l0.38-22.767L132.797,141.536z"/>
</g>
<g>
	<path fill="#FFFFFF" d="M103.148,96.435c-12.916-0.004-23.39,10.391-23.393,23.216c-0.005,12.825,10.463,23.224,23.381,23.228
		c12.916,0.003,23.391-10.389,23.393-23.215C126.534,106.839,116.066,96.44,103.148,96.435z M98.002,128.591
		c0,1.099-0.893,1.817-1.991,1.817h-0.978c-1.1,0-1.99-0.72-1.99-1.819l0.006-18.11c0-1.1,0.892-2.081,1.99-2.081h0.979
		c1.099,0,1.99,0.982,1.99,2.082L98.002,128.591z M113.187,128.592c0,1.1-0.892,1.815-1.991,1.815h-0.978
		c-1.099,0-1.991-0.716-1.989-1.816l0.005-18.112c0-1.099,0.892-2.08,1.991-2.08h0.978c1.099,0,1.989,0.981,1.989,2.082
		L113.187,128.592z"/>
</g>
<g>
	<polygon fill="#1B1B17" points="175.125,21.128 164.175,19.775 164.748,-10.915 26.623,-13.5 25.747,33.302 163.872,35.888 
		163.999,29.129 173.934,28.875 	"/>
</g>
<g>
	<g>
		<g>
			<path fill="#1B1B17" d="M192.366,212.993c0.316-2.881-1.765-20.688-1.934-22.664c-0.138-1.614-2.232-2.725-5.116-2.896
				c-0.983-3.435-1.239-9.896-1.239-9.896l-6.4-0.529l-1.017,11.018l-6.24,0.532l2.521,29.576l12.27-1.045l0.245-0.023l0.341-0.026
				C189.683,216.706,192.05,215.877,192.366,212.993z"/>
		</g>
		<g>
			<polygon fill="#1B1B17" points="171.778,218.233 169.254,188.656 165.49,188.976 165.911,193.907 155.926,194.758 
				156.347,199.687 166.332,198.836 167.204,209.074 157.219,209.926 157.639,214.854 167.625,214.004 168.011,218.554 			"/>
		</g>
	</g>
	<g>
		
			<rect x="170.517" y="188.543" transform="matrix(-0.9964 0.0844 -0.0844 -0.9964 358.7564 391.6099)" fill="#FFFFFF" width="1.169" height="29.689"/>
	</g>
</g>
<g>
	<g>
		<path fill="#232320" d="M36.992,18.755l1.453-22.542l-1.236-0.08l-1.531,23.753l0.604,0.052c0.028,0.002,2.846,0.243,5.875,0.323
			c0.662,0.017,1.268,0.025,1.819,0.025c4.679,0,5.573-0.567,5.89-0.767l-0.663-1.045C47.912,19.291,41.278,19.092,36.992,18.755z"
			/>
	</g>
	<g>
		<path fill="#232320" d="M60.211,0.443c-2.605-2.061-5.994-1.502-9.301,1.533l0.837,0.912c0.392-0.36,0.782-0.68,1.169-0.961
			c-0.525,2.381-2.568,12.001-1.713,14.002c0.165,0.385,1.692,3.768,4.484,3.917c0.061,0.003,0.123,0.005,0.184,0.005
			c1.963,0,3.894-1.667,5.738-4.961C64.109,10.425,64.144,3.556,60.211,0.443z M60.529,14.284c-1.629,2.909-3.28,4.404-4.776,4.325
			c-1.664-0.088-2.96-2.111-3.412-3.167c-0.559-1.308,0.822-8.934,1.824-13.433l-1.039-0.231c2.347-1.622,4.55-1.763,6.316-0.364
			C62.218,3.61,63.317,9.305,60.529,14.284z"/>
	</g>
	<g>
		<path fill="#232320" d="M78.81,9.784l-9.687,0.651c0.764-3.711,2.1-7.312,2.965-8.723c0.52-0.849,1.126-1.318,1.8-1.396
			c1.276-0.151,2.505,1.076,2.518,1.088l0.882-0.868c-0.066-0.068-1.652-1.665-3.535-1.45c-1.073,0.122-1.987,0.788-2.719,1.979
			c-0.908,1.48-2.4,5.398-3.195,9.457L66.687,10.6l0.084,1.235l0.846-0.057c-0.504,3.205-0.49,6.35,0.664,8.31
			c0.79,1.339,2.068,2.041,3.709,2.041c0.088,0,0.178-0.002,0.269-0.006c2.128-0.096,3.8-0.889,4.972-2.353
			c2.717-3.397,1.722-9.193,1.678-9.438L78.81,9.784z M76.26,18.997c-0.938,1.173-2.305,1.808-4.059,1.887
			c-1.317,0.062-2.254-0.407-2.855-1.427c-1.014-1.72-0.971-4.7-0.457-7.766l8.874-0.597C77.93,12.556,78.182,16.596,76.26,18.997z"
			/>
	</g>
	<g>
		<path fill="#232320" d="M87.322,18.513c-0.3-4.729,0.675-12.219,1.18-15.657c1.88-0.107,3.703-0.19,4.338-0.152l0.073-1.235
			c-0.653-0.038-2.395,0.036-4.222,0.138c0.056-0.357,0.091-0.568,0.094-0.585l-1.221-0.204C87.55,0.895,87.5,1.201,87.425,1.681
			c-2.1,0.127-4.006,0.263-4.165,0.274l0.089,1.234c0.037-0.002,1.843-0.131,3.889-0.257c-0.523,3.571-1.451,10.839-1.151,15.638
			c-2.022,0.097-3.668,0.206-3.827,0.216l0.082,1.235c1.035-0.069,2.412-0.15,3.856-0.219c0.05,0.401,0.111,0.778,0.187,1.121
			l1.209-0.264c-0.061-0.28-0.109-0.588-0.153-0.912c2.626-0.108,5.21-0.154,6.138,0.005l0.211-1.219
			C92.717,18.348,89.903,18.406,87.322,18.513z"/>
	</g>
	<g>
		<path fill="#232320" d="M103.021-0.928l-1.236-0.043l-0.021,0.581c-3.176-0.088-5.855-0.006-6.065,0.001l0.04,1.237
			c0.052-0.001,2.77-0.085,5.983,0.003l-0.775,22.616l1.236,0.042l0.775-22.616c2.539,0.105,5.207,0.331,7.023,0.795l0.306-1.199
			c-1.923-0.491-4.682-0.729-7.286-0.836L103.021-0.928z"/>
	</g>
	<g>
		<path fill="#232320" d="M120.947,12.905c-1.984-4.446-5.223-11.699-5.417-12.136l-1.179,0.169l-1.77,13.077
			c-0.12,0.021-0.188,0.033-0.191,0.033l0.105,0.604l-1.102,8.155l1.227,0.166l1.066-7.885c0.732-0.12,1.771-0.283,2.908-0.443
			c1.363-0.192,2.562-0.335,3.58-0.431c0.607,1.363,1.045,2.343,1.146,2.571c0.112,0.471,0.622,3.424,0.075,4.979l1.169,0.411
			c0.748-2.13-0.031-5.714-0.094-5.849c-0.008-0.02-0.398-0.895-0.987-2.214c0.917-0.053,1.594-0.045,1.993,0.026l0.219-1.218
			C123.137,12.818,122.215,12.814,120.947,12.905z M116.422,13.417c-0.965,0.136-1.86,0.275-2.562,0.387l1.427-10.544
			c1.095,2.452,2.979,6.673,4.356,9.759C118.705,13.115,117.633,13.247,116.422,13.417z"/>
	</g>
	<g>
		<polygon fill="#232320" points="137.619,21.448 129.809,1.281 128.612,1.485 127.923,24.062 129.16,24.1 129.756,4.575 
			137.177,23.734 138.355,23.657 143.334,3.183 142.131,2.891 		"/>
	</g>
	<g>
		<path fill="#232320" d="M148.213,12.684l10.773-6l-0.602-1.082l-10.788,6.007l0.499-10.402l-1.236-0.059l-1.129,23.562l1.235,0.06
			l0.531-11.068c1.984,1.544,7.112,5.92,7.588,10.238l1.229-0.135C155.779,18.934,150.297,14.288,148.213,12.684z"/>
	</g>
</g>
<g>
	<polygon fill="#1B1B17" points="175.125,271.128 164.175,269.775 164.748,239.085 26.623,236.5 25.747,283.303 163.872,285.889 
		163.999,279.129 173.934,278.875 	"/>
</g>
<g>
	<path fill="#232320" d="M36.992,268.755l1.453-22.542l-1.236-0.08l-1.531,23.754l0.604,0.051c0.028,0.002,2.846,0.244,5.875,0.324
		c0.662,0.016,1.268,0.024,1.819,0.024c4.679,0,5.573-0.567,5.89-0.767l-0.663-1.045C47.912,269.291,41.278,269.092,36.992,268.755z
		"/>
</g>
<g>
	<g>
		<path fill="#1B1B17" d="M332.734,388.94c3.496-29.271-5.307-42.133-5.307-42.133l5.475-11.735l-11.23-2.153l-1.285-10.155
			l-52.354,8.759l1.232,7.384c-14.814,12.439-20.729,33.684-16.81,57.127l-12.278,3.22l5.569,26.82l14.656-1.259l2.528,25.676
			l16.717,2.463l4.287-30.269l14.277-0.552l6.16,27.332l17.948-2.424l1.204-29.553l20.605-4.55l-1.029-22.659L332.734,388.94z"/>
	</g>
	<g>
		<path fill="#FFFFFF" d="M278.659,370.484c-0.789-12.753,8.979-23.734,21.811-24.535c12.839-0.794,23.89,8.897,24.685,21.642
			c0.787,12.743-8.973,23.725-21.819,24.526C290.504,392.918,279.454,383.228,278.659,370.484z"/>
	</g>
	<g>
		<path fill="#1B1B17" d="M336.848,374.322l-13.752-4.037c0.051-0.849,0.046-1.707-0.008-2.573
			c-0.73-11.695-10.806-20.594-22.5-19.864c-11.71,0.731-20.6,10.813-19.87,22.508c0.729,11.703,10.806,20.602,22.515,19.871
			c7.289-0.455,13.483-4.54,16.945-10.384l14.893,2.342L336.848,374.322z"/>
	</g>
</g>
<g>
	<path fill="#232320" d="M60.211,250.443c-2.605-2.062-5.994-1.502-9.301,1.533l0.837,0.912c0.392-0.361,0.782-0.681,1.169-0.962
		c-0.525,2.382-2.568,12.001-1.713,14.003c0.165,0.385,1.692,3.768,4.484,3.916c0.061,0.004,0.123,0.006,0.184,0.006
		c1.963,0,3.894-1.668,5.738-4.961C64.109,260.425,64.144,253.557,60.211,250.443z M60.529,264.284
		c-1.629,2.909-3.28,4.403-4.776,4.325c-1.664-0.088-2.96-2.111-3.412-3.168c-0.559-1.308,0.822-8.934,1.824-13.433l-1.039-0.231
		c2.347-1.621,4.55-1.762,6.316-0.363C62.218,253.609,63.317,259.305,60.529,264.284z"/>
</g>
<g>
	<path fill="#232320" d="M78.81,259.784l-9.687,0.651c0.764-3.711,2.1-7.312,2.965-8.724c0.52-0.849,1.126-1.317,1.8-1.396
		c1.276-0.151,2.505,1.076,2.518,1.088l0.882-0.868c-0.066-0.068-1.652-1.665-3.535-1.45c-1.073,0.122-1.987,0.788-2.719,1.979
		c-0.908,1.48-2.4,5.398-3.195,9.457l-1.152,0.078l0.084,1.235l0.846-0.058c-0.504,3.205-0.49,6.351,0.664,8.311
		c0.79,1.339,2.068,2.041,3.709,2.041c0.088,0,0.178-0.002,0.269-0.006c2.128-0.096,3.8-0.889,4.972-2.354
		c2.717-3.396,1.722-9.192,1.678-9.438L78.81,259.784z M76.26,268.997c-0.938,1.173-2.305,1.808-4.059,1.887
		c-1.317,0.062-2.254-0.407-2.855-1.427c-1.014-1.721-0.971-4.7-0.457-7.766l8.874-0.598
		C77.93,262.557,78.182,266.596,76.26,268.997z"/>
</g>
<g>
	<path fill="#232320" d="M87.322,268.514c-0.3-4.729,0.675-12.22,1.18-15.658c1.88-0.106,3.703-0.189,4.338-0.151l0.073-1.235
		c-0.653-0.037-2.395,0.036-4.222,0.139c0.056-0.357,0.091-0.568,0.094-0.586l-1.221-0.203c-0.014,0.076-0.064,0.383-0.139,0.863
		c-2.1,0.127-4.006,0.262-4.165,0.273l0.089,1.234c0.037-0.002,1.843-0.131,3.889-0.258c-0.523,3.571-1.451,10.84-1.151,15.639
		c-2.022,0.097-3.668,0.205-3.827,0.216l0.082,1.235c1.035-0.069,2.412-0.15,3.856-0.22c0.05,0.401,0.111,0.778,0.187,1.121
		l1.209-0.264c-0.061-0.28-0.109-0.589-0.153-0.912c2.626-0.108,5.21-0.154,6.138,0.005l0.211-1.219
		C92.717,268.348,89.903,268.406,87.322,268.514z"/>
</g>
<g>
	<path fill="#1B1B17" d="M160.99,382.99c-4.523,0-8.797-0.389-12.521-0.917c-11.838-1.68-20.816-5.105-20.906-5.14l0.719-1.867
		c0.349,0.135,35.153,13.27,58.755-0.073c10.965-6.199,17.907-17.189,20.633-32.667c3.39-19.252,0.745-35.013-7.86-46.843
		c-12.161-16.719-32.247-19.695-32.448-19.724l0.277-1.98c0.856,0.119,21.132,3.129,33.788,20.527
		c8.938,12.286,11.7,28.559,8.212,48.367c-2.834,16.097-10.109,27.558-21.624,34.064C179.559,381.517,169.803,382.99,160.99,382.99z
		"/>
</g>
<g>
	<g>
		<path fill="#1B1B17" d="M132.735,388.94c3.496-29.271-5.307-42.133-5.307-42.133l5.475-11.735l-11.23-2.153l-1.286-10.155
			l-52.354,8.759l1.233,7.384c-14.815,12.439-20.729,33.684-16.81,57.127l-12.278,3.22l5.569,26.82l14.656-1.259l2.528,25.676
			l16.717,2.463l4.287-30.269l14.278-0.552l6.16,27.332l17.948-2.424l1.204-29.553l20.606-4.55l-1.029-22.659L132.735,388.94z"/>
	</g>
	<g>
		<path fill="#FFFFFF" d="M78.659,370.484c-0.789-12.753,8.979-23.734,21.811-24.535c12.839-0.794,23.889,8.897,24.685,21.642
			c0.787,12.743-8.973,23.725-21.819,24.526C90.504,392.918,79.454,383.228,78.659,370.484z"/>
	</g>
	<g>
		<path fill="#1B1B17" d="M136.848,374.322l-13.752-4.037c0.051-0.849,0.046-1.707-0.008-2.573
			c-0.73-11.695-10.805-20.594-22.5-19.864c-11.71,0.731-20.6,10.813-19.87,22.508c0.73,11.703,10.805,20.602,22.515,19.871
			c7.289-0.455,13.483-4.54,16.945-10.384l14.893,2.342L136.848,374.322z"/>
	</g>
</g>
<g>
	<polygon fill="#1B1B17" points="375.125,271.128 364.175,269.775 364.748,239.085 226.623,236.5 225.747,283.303 363.872,285.889 
		363.999,279.129 373.934,278.875 	"/>
</g>
<g opacity="0.9">
	<path fill="#FFFFFF" d="M110.411,250.004c-1.603-0.409-3.919-0.687-6.893-0.829l0.021-0.585l-2.234-0.078l-0.021,0.585
		c-2.973-0.069-5.402,0.006-5.602,0.015l-0.497,0.019l0.056,1.733l0.08,0.495l0.497-0.013c0.406-0.011,2.669-0.068,5.389-0.007
		l-0.775,22.61l2.235,0.076l0.775-22.61c2.813,0.134,4.971,0.389,6.417,0.757l0.484,0.124l0.554-2.168L110.411,250.004z"/>
	<path fill="#FFFFFF" d="M123.784,262.428c-0.548-0.099-1.371-0.113-2.523-0.045l-5.428-12.162l-1.927,0.274l-1.767,13.052h-0.344
		l0.193,1.114l-1.159,8.573l2.218,0.3l1.083-8.013c0.691-0.111,1.577-0.248,2.531-0.383c1.168-0.164,2.243-0.296,3.201-0.393
		l0.97,2.154c0.155,0.65,0.557,3.369,0.09,4.696l-0.166,0.472l2.113,0.743l0.166-0.472c0.814-2.319-0.033-6.058-0.105-6.21
		c-0.007-0.017-0.271-0.608-0.69-1.551c0.509-0.01,0.903,0.006,1.147,0.051l0.493,0.089l0.395-2.202L123.784,262.428z
		 M118.906,262.596c-0.771,0.087-1.622,0.195-2.554,0.326c-0.685,0.097-1.335,0.194-1.907,0.283l1.102-8.137L118.906,262.596z"/>
	<polygon fill="#FFFFFF" points="141.763,252.286 137.51,269.781 130.128,250.72 128.125,251.06 127.408,274.547 129.645,274.614 
		130.18,257.056 136.843,274.257 138.754,274.132 143.938,252.816 	"/>
	<path fill="#FFFFFF" d="M149.112,262.755l10.555-5.878l-1.089-1.956l-10.438,5.814l0.48-10.004l-2.235-0.106l-1.177,24.561
		l2.234,0.107l0.508-10.585c2.107,1.749,6.234,5.607,6.639,9.286l0.055,0.497l2.225-0.244l-0.055-0.497
		C156.305,269.135,151.646,264.798,149.112,262.755z"/>
	<g>
		<path fill="#FFFFFF" d="M248.936,268.052c-0.235,0.149-1.191,0.496-4.968,0.496c-1.911,0-4.233-0.092-6.445-0.254l1.454-22.548
			l-2.234-0.145l-1.595,24.742l1.115,0.094c0.497,0.041,3.118,0.251,5.883,0.324c0.665,0.016,1.275,0.024,1.831,0.024
			c4.812,0,5.752-0.59,6.155-0.843l0.426-0.268l-1.2-1.891L248.936,268.052z"/>
		<path fill="#FFFFFF" d="M260.521,250.051c-2.767-2.187-6.492-1.615-9.949,1.557l-0.368,0.338l1.514,1.649l0.368-0.34
			c0.014-0.012,0.026-0.024,0.04-0.036c-0.86,4.084-2.16,11.088-1.383,12.907c0.178,0.414,1.826,4.054,4.912,4.218
			c0.071,0.005,0.145,0.007,0.216,0.007c2.159,0,4.236-1.755,6.175-5.217C264.646,260.491,264.653,253.321,260.521,250.051z
			 M254.459,251.562c1.749-0.875,3.351-0.804,4.672,0.244c2.614,2.066,3.625,7.476,0.962,12.233c-1.469,2.624-2.97,4.07-4.311,4.07
			c-0.001,0-0.002,0-0.003,0c-1.315-0.069-2.502-1.752-2.979-2.865c-0.421-0.986,0.618-7.584,1.853-13.128l0.108-0.487
			L254.459,251.562z"/>
		<path fill="#FFFFFF" d="M279.224,259.255l-9.473,0.638c0.76-3.384,1.971-6.627,2.764-7.92c0.435-0.71,0.916-1.1,1.433-1.16
			c1.002-0.106,1.999,0.843,2.134,0.972l0.349,0.299l1.561-1.536l-0.341-0.356c-0.067-0.071-1.806-1.851-3.953-1.601
			c-1.232,0.14-2.271,0.885-3.088,2.213c-0.962,1.567-2.391,5.407-3.185,9.246l-1.27,0.086l0.152,2.233l0.726-0.05
			c-0.49,3.571-0.216,6.269,0.818,8.023c0.882,1.496,2.313,2.287,4.14,2.287c0.095,0,0.192-0.002,0.291-0.007
			c2.276-0.102,4.073-0.957,5.34-2.54c2.862-3.578,1.826-9.584,1.78-9.839L279.224,259.255z M275.869,268.685
			c-0.844,1.056-2.085,1.627-3.691,1.7l-0.202,0.004c-1.022,0-1.722-0.376-2.199-1.186c-0.803-1.363-0.96-3.792-0.457-7.04
			l7.994-0.538C277.462,263.357,277.486,266.664,275.869,268.685z"/>
		<path fill="#FFFFFF" d="M287.795,267.994c-0.199-4.574,0.683-11.461,1.143-14.662c2.055-0.112,3.361-0.16,3.872-0.129l0.5,0.03
			l0.132-2.235l-0.5-0.028c-0.633-0.036-2.278,0.031-3.658,0.104l0.077-0.464l-2.194-0.365l-0.093,0.479
			c-0.01,0.055-0.038,0.222-0.08,0.483c-1.938,0.119-3.621,0.238-3.771,0.249l-0.498,0.037l0.162,2.222l0.644-0.037
			c0.415-0.028,1.662-0.115,3.125-0.208c-0.54,3.789-1.294,10.102-1.095,14.626c-1.792,0.09-3.188,0.182-3.334,0.191l-0.499,0.034
			l0.148,2.232l0.499-0.033c0.923-0.062,2.118-0.133,3.391-0.197c0.038,0.248,0.081,0.485,0.131,0.708l0.108,0.486l2.183-0.477
			l-0.105-0.487c-0.022-0.105-0.043-0.216-0.063-0.329c1.332-0.051,2.464-0.076,3.37-0.076c1.276,0,1.85,0.053,2.106,0.097
			l0.491,0.084l0.382-2.203l-0.493-0.086C292.982,267.887,290.942,267.873,287.795,267.994z"/>
		<path fill="#FFFFFF" d="M310.41,250.004c-1.602-0.409-3.919-0.687-6.892-0.829l0.021-0.585l-2.235-0.078l-0.021,0.585
			c-2.975-0.069-5.401,0.006-5.602,0.015l-0.497,0.019l0.055,1.733l0.081,0.495l0.497-0.013c0.406-0.011,2.668-0.068,5.39-0.007
			l-0.775,22.61l2.235,0.076l0.774-22.61c2.813,0.134,4.971,0.389,6.416,0.757l0.484,0.124l0.555-2.168L310.41,250.004z"/>
		<path fill="#FFFFFF" d="M321.262,262.383c-1.993-4.465-5.085-11.392-5.276-11.817l-0.153-0.344l-1.925,0.275l-1.768,13.052h-0.343
			l0.192,1.114l-1.159,8.573l2.219,0.3l1.083-8.013c0.691-0.111,1.577-0.248,2.531-0.383c1.169-0.164,2.243-0.296,3.201-0.393
			l0.97,2.153c0.108,0.46,0.587,3.28,0.089,4.697l-0.166,0.472l2.113,0.743l0.166-0.472c0.812-2.311-0.033-6.055-0.109-6.22
			l-0.688-1.541c0.503-0.011,0.903,0.006,1.148,0.051l0.492,0.089l0.396-2.202l-0.49-0.09
			C323.234,262.329,322.411,262.313,321.262,262.383z M318.906,262.596c-0.771,0.087-1.621,0.195-2.554,0.326
			c-0.686,0.097-1.336,0.194-1.907,0.283l1.102-8.137L318.906,262.596z"/>
		<polygon fill="#FFFFFF" points="337.51,269.781 330.127,250.72 328.124,251.06 327.408,274.547 329.645,274.614 330.181,257.056 
			336.843,274.257 338.755,274.132 343.938,252.816 341.763,252.286 		"/>
		<path fill="#FFFFFF" d="M349.111,262.755l10.555-5.878l-1.087-1.956l-10.439,5.814l0.479-10.004l-2.235-0.106l-1.177,24.561
			l2.234,0.107l0.508-10.585c2.107,1.749,6.233,5.608,6.639,9.286l0.055,0.497l2.224-0.244l-0.055-0.497
			C356.305,269.135,351.646,264.798,349.111,262.755z"/>
	</g>
</g>
<g>
	<path fill="#1B1B17" d="M360.99,382.99c-4.523,0-8.798-0.389-12.521-0.917c-11.838-1.68-20.816-5.105-20.905-5.14l0.719-1.867
		c0.35,0.136,35.15,13.271,58.755-0.073c10.965-6.199,17.907-17.189,20.633-32.667c3.39-19.252,0.745-35.013-7.86-46.843
		c-12.161-16.719-32.246-19.695-32.448-19.724l0.277-1.98c0.856,0.119,21.132,3.129,33.788,20.527
		c8.938,12.286,11.7,28.559,8.212,48.367c-2.834,16.097-10.109,27.558-21.624,34.064C379.558,381.517,369.802,382.99,360.99,382.99z
		"/>
</g>
<g>
	<path fill="#1B1B17" d="M332.797,141.536c5.333-29.115-2.686-42.557-2.686-42.557l6.223-11.423l-11.119-2.861l-0.654-10.258
		l-53.017,5.501l0.774,7.478c-15.629,11.543-22.885,32.468-20.424,56.203l-12.509,2.462l3.906,27.228l14.769-0.347l0.92,25.894
		l16.604,3.519l6.188-30.072l14.35,0.339l4.459,27.781l18.146-1.312l3.047-29.543l20.947-3.269l0.379-22.767L332.797,141.536z"/>
</g>
<g>
	<path fill="#FFFFFF" d="M303.148,96.435c-12.916-0.004-23.391,10.391-23.394,23.216c-0.005,12.825,10.463,23.224,23.382,23.228
		c12.915,0.003,23.391-10.389,23.393-23.215C326.534,106.839,316.066,96.44,303.148,96.435z M298.002,128.591
		c0,1.099-0.893,1.817-1.99,1.817h-0.979c-1.1,0-1.99-0.72-1.99-1.819l0.006-18.11c0-1.1,0.893-2.081,1.99-2.081h0.979
		c1.1,0,1.99,0.982,1.99,2.082L298.002,128.591z M313.188,128.592c0,1.1-0.893,1.815-1.992,1.815h-0.978
		c-1.099,0-1.991-0.716-1.989-1.816l0.006-18.112c0-1.099,0.892-2.08,1.99-2.08h0.979c1.099,0,1.988,0.981,1.988,2.082
		L313.188,128.592z"/>
</g>
<g>
	<polygon fill="#1B1B17" points="375.125,21.128 364.175,19.775 364.748,-10.915 226.623,-13.5 225.747,33.302 363.872,35.888 
		363.999,29.129 373.934,28.875 	"/>
</g>
<g>
	<g>
		<path fill="#232320" d="M236.992,18.755l1.453-22.542l-1.236-0.08l-1.531,23.753l0.604,0.052c0.028,0.002,2.846,0.243,5.875,0.323
			c0.661,0.017,1.268,0.025,1.819,0.025c4.678,0,5.572-0.567,5.89-0.767l-0.663-1.045C247.912,19.291,241.277,19.092,236.992,18.755
			z"/>
	</g>
	<g>
		<path fill="#232320" d="M260.211,0.443c-2.605-2.061-5.994-1.502-9.301,1.533l0.837,0.912c0.392-0.36,0.782-0.68,1.169-0.961
			c-0.525,2.381-2.568,12.001-1.713,14.002c0.165,0.385,1.691,3.768,4.484,3.917c0.061,0.003,0.123,0.005,0.184,0.005
			c1.963,0,3.895-1.667,5.738-4.961C264.109,10.425,264.145,3.556,260.211,0.443z M260.529,14.284
			c-1.629,2.909-3.28,4.404-4.776,4.325c-1.664-0.088-2.96-2.111-3.412-3.167c-0.559-1.308,0.822-8.934,1.824-13.433l-1.039-0.231
			c2.347-1.622,4.55-1.763,6.315-0.364C262.218,3.61,263.316,9.305,260.529,14.284z"/>
	</g>
	<g>
		<path fill="#232320" d="M278.811,9.784l-9.688,0.651c0.764-3.711,2.1-7.312,2.965-8.723c0.52-0.849,1.126-1.318,1.801-1.396
			c1.275-0.151,2.504,1.076,2.518,1.088l0.882-0.868c-0.065-0.068-1.651-1.665-3.535-1.45c-1.073,0.122-1.987,0.788-2.719,1.979
			c-0.908,1.48-2.4,5.398-3.195,9.457l-1.151,0.078l0.084,1.235l0.846-0.057c-0.504,3.205-0.49,6.35,0.664,8.31
			c0.789,1.339,2.068,2.041,3.709,2.041c0.088,0,0.178-0.002,0.269-0.006c2.128-0.096,3.8-0.889,4.972-2.353
			c2.718-3.397,1.723-9.193,1.679-9.438L278.811,9.784z M276.26,18.997c-0.938,1.173-2.305,1.808-4.059,1.887
			c-1.317,0.062-2.254-0.407-2.855-1.427c-1.014-1.72-0.971-4.7-0.457-7.766l8.875-0.597
			C277.93,12.556,278.182,16.596,276.26,18.997z"/>
	</g>
	<g>
		<path fill="#232320" d="M287.322,18.513c-0.301-4.729,0.675-12.219,1.18-15.657c1.88-0.107,3.703-0.19,4.338-0.152l0.073-1.235
			c-0.653-0.038-2.396,0.036-4.222,0.138c0.056-0.357,0.091-0.568,0.094-0.585l-1.221-0.204c-0.015,0.077-0.064,0.383-0.14,0.863
			c-2.1,0.127-4.006,0.263-4.165,0.274l0.09,1.234c0.036-0.002,1.842-0.131,3.889-0.257c-0.523,3.571-1.451,10.839-1.151,15.638
			c-2.022,0.097-3.668,0.206-3.827,0.216l0.082,1.235c1.035-0.069,2.412-0.15,3.856-0.219c0.05,0.401,0.11,0.778,0.187,1.121
			l1.209-0.264c-0.061-0.28-0.109-0.588-0.152-0.912c2.625-0.108,5.209-0.154,6.138,0.005l0.211-1.219
			C292.717,18.348,289.902,18.406,287.322,18.513z"/>
	</g>
	<g>
		<path fill="#232320" d="M303.021-0.928l-1.236-0.043l-0.021,0.581c-3.176-0.088-5.854-0.006-6.064,0.001l0.039,1.237
			c0.053-0.001,2.771-0.085,5.984,0.003l-0.775,22.616l1.236,0.042l0.774-22.616c2.539,0.105,5.207,0.331,7.022,0.795l0.307-1.199
			c-1.923-0.491-4.682-0.729-7.286-0.836L303.021-0.928z"/>
	</g>
	<g>
		<path fill="#232320" d="M320.947,12.905c-1.984-4.446-5.223-11.699-5.418-12.136l-1.178,0.169l-1.771,13.077
			c-0.12,0.021-0.188,0.033-0.19,0.033l0.104,0.604l-1.103,8.155l1.228,0.166l1.065-7.885c0.732-0.12,1.771-0.283,2.908-0.443
			c1.363-0.192,2.562-0.335,3.58-0.431c0.607,1.363,1.045,2.343,1.146,2.571c0.111,0.471,0.621,3.424,0.074,4.979l1.17,0.411
			c0.748-2.13-0.031-5.714-0.094-5.849c-0.009-0.02-0.398-0.895-0.988-2.214c0.918-0.053,1.595-0.045,1.994,0.026l0.219-1.218
			C323.137,12.818,322.215,12.814,320.947,12.905z M316.422,13.417c-0.965,0.136-1.859,0.275-2.562,0.387l1.428-10.544
			c1.095,2.452,2.979,6.673,4.355,9.759C318.705,13.115,317.633,13.247,316.422,13.417z"/>
	</g>
	<g>
		<polygon fill="#232320" points="337.619,21.448 329.809,1.281 328.611,1.485 327.923,24.062 329.16,24.1 329.756,4.575 
			337.177,23.734 338.355,23.657 343.334,3.183 342.131,2.891 		"/>
	</g>
	<g>
		<path fill="#232320" d="M348.213,12.684l10.773-6l-0.602-1.082l-10.787,6.007l0.498-10.402l-1.236-0.059L345.73,24.71l1.235,0.06
			l0.531-11.068c1.983,1.544,7.112,5.92,7.588,10.238l1.229-0.135C355.779,18.934,350.297,14.288,348.213,12.684z"/>
	</g>
</g>
<path fill="none" stroke="#1B1B17" stroke-width="2" stroke-miterlimit="10" d="M170.107,24.77c0,0,14.802,0.73,13.348,20.73
	s-6.545,94-1,146.5"/>
<g>
	<g>
		<g>
			<path fill="#1B1B17" d="M401.874,210.78c-0.022-2.899-4.165-20.342-4.562-22.284c-0.325-1.587-2.534-2.446-5.419-2.28
				c-1.376-3.297-2.384-9.685-2.384-9.685l-6.419,0.221l0.274,11.062l-6.136,1.255l5.951,29.082l12.063-2.468l0.241-0.051
				l0.336-0.066C399.642,214.78,401.896,213.681,401.874,210.78z"/>
		</g>
		<g>
			<polygon fill="#1B1B17" points="382.036,218.384 376.083,189.303 372.382,190.059 373.375,194.907 363.556,196.916 
				364.55,201.762 374.367,199.754 376.428,209.82 366.608,211.83 367.601,216.676 377.418,214.668 378.333,219.142 			"/>
		</g>
	</g>
	<g>
		
			<rect x="379.05" y="188.874" transform="matrix(-0.9798 0.1998 -0.1998 -0.9798 792.3184 327.4727)" fill="#FFFFFF" width="1.168" height="29.689"/>
	</g>
</g>
<path fill="none" stroke="#1B1B17" stroke-width="2" stroke-miterlimit="10" d="M370.107,24.77c0,0,14.802,0.73,13.348,20.73
	c-1.455,20,3.519,144.379,3.519,144.379"/>
</svg>
