<?xml version="1.0" encoding="utf-8"?>
<!-- Generator: Adobe Illustrator 16.0.0, SVG Export Plug-In . SVG Version: 6.00 Build 0)  -->
<!DOCTYPE svg PUBLIC "-//W3C//DTD SVG 1.1//EN" "http://www.w3.org/Graphics/SVG/1.1/DTD/svg11.dtd">
<svg version="1.1" id="Layer_1" xmlns="http://www.w3.org/2000/svg" xmlns:xlink="http://www.w3.org/1999/xlink" x="0px" y="0px"
	 width="225px" height="225px" viewBox="0 -12 225 225" enable-background="new 0 -12 225 225" xml:space="preserve">
<path fill="#FFFFFF" stroke="#1B1B17" stroke-width="2" stroke-miterlimit="10" d="M201.197,160.004h-27.959
	c-1.642,0-2.238,1.336-2.238,2.235c0,1.172,0.682,1.811,1.4,2.081v34.968c0,2.224,1.344,6.43,6.431,6.43h16.773
	c5.087,0,6.431-4.206,6.431-6.43v-30.245v-4.723c0.719-0.271,1.4-0.909,1.4-2.081C203.436,160.6,202.097,160.004,201.197,160.004z"
	/>
<path fill="#FFFFFF" stroke="#1B1B17" stroke-width="2" stroke-miterlimit="10" d="M126.197,160.004H98.238
	c-1.642,0-2.238,1.336-2.238,2.235c0,1.172,0.682,1.811,1.4,2.081v34.968c0,2.224,1.344,6.43,6.431,6.43h16.773
	c5.087,0,6.431-4.206,6.431-6.43v-30.245v-4.723c0.719-0.271,1.4-0.909,1.4-2.081C128.436,160.6,127.097,160.004,126.197,160.004z"
	/>
<path fill="#FFFFFF" stroke="#1B1B17" stroke-width="2" stroke-miterlimit="10" d="M51.197,160H23.238
	c-1.642,0-2.238,1.336-2.238,2.235c0,1.172,0.682,1.811,1.4,2.081v34.968c0,2.224,1.344,6.43,6.431,6.43h16.773
	c5.087,0,6.431-4.206,6.431-6.43v-30.245v-4.723c0.719-0.271,1.4-0.909,1.4-2.081C53.436,160.596,52.097,160,51.197,160z"/>
<path fill="#FFFFFF" stroke="#1B1B17" stroke-width="2" stroke-miterlimit="10" d="M201.197,85h-27.959
	c-1.642,0-2.238,1.336-2.238,2.236c0,1.171,0.682,1.81,1.4,2.081v34.968c0,2.224,1.344,6.43,6.431,6.43h16.773
	c5.087,0,6.431-4.206,6.431-6.43V94.039v-4.723c0.719-0.271,1.4-0.909,1.4-2.081C203.436,85.596,202.097,85,201.197,85z"/>
<path fill="#1B1B17" d="M134.656,107.594l-4.518-0.479c1.241-12.648-2.705-18.106-2.705-18.106l2.268-5.11l-5.016-1.569
	l-0.543-3.616l-22.68,4.277l0.605,3.171c-6.322,5.503-8.693,14.716-6.765,24.782l-5.309,1.504l2.676,11.506l6.361-0.682
	l1.344,11.041l7.291,0.902l1.459-12.115l6.605-0.203l2.649,10.576l7.78-1.217l0.242-12.746l8.916-2.158L134.656,107.594z"/>
<path fill="#1B1B17" stroke="#FFFFFF" stroke-width="3" stroke-miterlimit="10" d="M115.833,89.93
	c-0.188,0.005-0.382,0.016-0.575,0.031c-2.607,0.22-4.974,1.424-6.661,3.393c-1.686,1.963-2.494,4.453-2.278,7.007
	c0.448,5.256,5.175,9.229,10.566,8.765c2.611-0.22,4.979-1.425,6.67-3.394c1.684-1.963,2.492-4.451,2.276-7.002
	C125.398,93.658,121.009,89.794,115.833,89.93z"/>
<path opacity="0.9" fill="#1B1B17" d="M47.608,173.523c-0.742,0.265-1.465,0.51-2.493,0.62h-2.389
	c-1.614-0.157-2.508-0.587-3.447-1.04c-1.121-0.539-2.28-1.101-4.622-1.101c-1.712,0-2.542,0.575-3.346,1.136
	c-0.628,0.438-1.228,0.854-2.306,1.005h-1.641c-0.691-0.106-1.186-0.348-1.695-0.603c-0.835-0.414-1.694-0.848-3.347-0.737
	l0.086,12.17v14.777c0,0,0,5.967,5.943,5.967h2.64h12.135c-0.048,0,0.69,0,3.051,0c5.944,0,5.944-5.967,5.944-5.967v-13.848
	l0.061-13.1C49.909,172.693,48.741,173.117,47.608,173.523z"/>
<circle opacity="0.3" fill="#FFFFFF" cx="41.42" cy="174.278" r="3.123"/>
<circle opacity="0.3" fill="#FFFFFF" cx="39.795" cy="191.039" r="1.237"/>
<circle opacity="0.3" fill="#FFFFFF" cx="33.051" cy="183.855" r="2.147"/>
<circle opacity="0.3" fill="#FFFFFF" cx="37.218" cy="200.874" r="0.631"/>
<path opacity="0.9" fill="#1B1B17" d="M123.492,173.084c-0.955,0.333-1.857,0.651-3.615,0.457c-1.66-0.183-2.471-0.728-3.33-1.299
	c-0.961-0.643-1.955-1.308-4.043-1.308c-2.094,0-3.088,0.665-4.051,1.308c-0.861,0.575-1.671,1.116-3.334,1.299
	c-1.759,0.194-2.661-0.124-3.618-0.457c-1.007-0.354-2.051-0.72-4.009-0.502l0.146,11.162v16.009c0,0,0,5.965,5.943,5.965h2.641
	h12.134c-0.047,0,0.689,0,3.053,0c5.943,0,5.943-5.965,5.943-5.965v-10.528l0.146-16.643
	C125.543,172.366,124.5,172.733,123.492,173.084z"/>
<circle opacity="0.3" fill="#FFFFFF" cx="105.679" cy="178.589" r="3.123"/>
<circle opacity="0.3" fill="#FFFFFF" cx="116.658" cy="193.195" r="1.423"/>
<circle opacity="0.3" fill="#FFFFFF" cx="110.906" cy="188.154" r="2.103"/>
<circle opacity="0.3" fill="#FFFFFF" cx="113.051" cy="199.392" r="0.557"/>
<path opacity="0.9" fill="#1B1B17" d="M198.688,172.695c-0.797,0.402-1.547,0.78-3.051,0.729c-1.475-0.055-2.199-0.498-2.965-0.965
	c-0.844-0.52-1.719-1.058-3.486-1.058c-2.229,0-3.342,0.524-4.42,1.03c-1.021,0.482-1.984,0.938-3.957,0.988
	c-2.002,0.053-2.994-0.333-4.043-0.747c-1.086-0.428-2.221-0.871-4.395-0.809l-0.023,1.929h-0.08v25.604c0,0,0,5.965,5.943,5.965
	h2.639h12.135c-0.047,0,0.691,0,3.053,0c5.943,0,5.943-5.965,5.943-5.965v-18.829l0.188-8.703
	C200.439,171.809,199.547,172.26,198.688,172.695z"/>
<circle opacity="0.3" fill="#FFFFFF" cx="186.154" cy="171.933" r="3.123"/>
<path opacity="0.3" fill="#FFFFFF" d="M192.258,185.847c1.082,0,1.957,0.875,1.957,1.957c0,1.086-0.875,1.961-1.957,1.961
	c-1.084,0-1.961-0.875-1.961-1.961C190.297,186.722,191.176,185.847,192.258,185.847z"/>
<circle opacity="0.3" fill="#FFFFFF" cx="180.99" cy="182.86" r="2.174"/>
<circle opacity="0.3" fill="#FFFFFF" cx="186.367" cy="194.182" r="1.335"/>
<circle opacity="0.3" fill="#FFFFFF" cx="190.205" cy="199.558" r="1.074"/>
<path opacity="0.9" fill="#1B1B17" d="M198.334,99.073c-1.012-0.395-2.053-0.805-4.062-0.67c-1.948,0.128-2.979,0.723-3.883,1.248
	c-0.926,0.534-1.8,1.04-3.647,1.04c-1.744,0-2.53-0.481-3.44-1.035c-0.864-0.526-1.843-1.124-3.704-1.255
	c-1.911-0.13-2.913,0.279-3.879,0.674c-0.913,0.374-1.771,0.73-3.48,0.607l0.03,25.289c0,0,0,5.967,5.943,5.967h2.64h12.137
	c-0.05,0,0.688,0,3.051,0c5.943,0,5.943-5.967,5.943-5.967v-15.186l0.027-10.102C200.201,99.81,199.295,99.449,198.334,99.073z"/>
<circle opacity="0.3" fill="#FFFFFF" cx="189.134" cy="106.275" r="3.124"/>
<circle opacity="0.3" fill="#FFFFFF" cx="189.134" cy="121.685" r="0.978"/>
<circle opacity="0.3" fill="#FFFFFF" cx="184.252" cy="114.433" r="2.147"/>
<g>
	<path fill="#1B1B17" d="M180.609-4.795l-4.476,16.148l1.966,0.544l1.158-4.178c1.511-0.298,3.989-0.735,5.569-0.819l1.396,3.696
		l1.91-0.722l-5.586-14.756L180.609-4.795z M179.865,5.523l1.879-6.769l2.331,6.156C182.701,5.032,181.087,5.297,179.865,5.523z"/>
	<path fill="#1B1B17" d="M192.655-4.646L191.237-4.8l-0.133,10.763l-0.322,5.999l0.818,0.205c0.886,0.222,1.681,0.333,2.384,0.333
		c0.992,0,1.802-0.223,2.45-0.666c0.832-0.57,1.332-1.463,1.483-2.655c0.097-0.754-0.104-1.475-0.587-2.081
		c-0.245-0.313-0.556-0.582-0.903-0.81c1.682-0.695,3.134-1.965,3.369-4.145C200.39-3.424,195.004-4.275,192.655-4.646z
		 M195.283,10.148c-0.344,0.234-1.029,0.436-2.372,0.209l0.171-3.191c0.992,0.205,2.188,0.612,2.651,1.198
		c0.142,0.178,0.189,0.344,0.161,0.555C195.783,9.806,195.406,10.063,195.283,10.148z M197.769,1.926
		c-0.255,2.363-3.072,2.902-4.611,3.021l0.093-7.42C196.36-1.879,198.068-0.867,197.769,1.926z"/>
	<path fill="#1B1B17" d="M169.354,9.132c-0.034-3.876-0.171-12.252-0.708-13.528l-1.888,0.779c0.309,0.884,0.527,7.733,0.562,13.844
		l0.006,1.081l7.063-0.453l-0.131-2.038L169.354,9.132z"/>
	<path fill="#1B1B17" d="M206.686,4.464c-0.119-0.071-0.229-0.135-0.318-0.199l-0.204-0.133c-0.812-0.527-1.924-1.251-1.986-2.975
		c-0.051-1.399,1.694-1.609,1.976-1.639c0.353-0.056,1.548-0.098,1.979,1.701l1.984-0.479c-0.727-3.013-3.081-3.434-4.273-3.24
		c-1.352,0.132-3.801,1.069-3.704,3.73c0.099,2.784,1.999,4.019,2.909,4.613l0.18,0.118c0.122,0.08,0.259,0.162,0.407,0.253
		c0.95,0.57,1.62,1.07,1.567,2.291c-0.012,0.272-0.258,0.459-0.465,0.567c-0.547,0.289-1.337,0.292-1.79,0.003
		c-0.19-0.12-0.437-0.348-0.413-0.947l-2.042-0.085c-0.051,1.19,0.432,2.169,1.36,2.755c0.561,0.357,1.249,0.535,1.95,0.535
		c0.643,0,1.297-0.15,1.88-0.455c0.952-0.499,1.519-1.333,1.558-2.29C209.349,6.064,207.614,5.024,206.686,4.464z"/>
</g>
<g>
	<path fill="#1B1B17" d="M98.711-4.898c-0.966,0.29-2.409,0.509-3.908,0.676c-0.002-0.135-0.004-0.227-0.005-0.262l-2.013,0.045
		c0,0.013,0.003,0.16,0.009,0.409c-2.265,0.185-4.208,0.254-4.245,0.255l0.068,2.013c0.151-0.005,2.003-0.071,4.215-0.25
		c0.07,3.956,0.172,11.542-0.042,13.407l2.001,0.229c0.232-2.023,0.124-9.874,0.052-13.826c1.667-0.182,3.319-0.43,4.445-0.769
		L98.711-4.898z"/>
	<path fill="#1B1B17" d="M110.871,6.948l-0.408-1.627c-0.237,0.059-0.481,0.112-0.73,0.16l-3.566-10.315l-1.79,0.019
		c-0.1,0.31-1.751,5.494-2.473,10.604c-0.308-0.021-0.492-0.038-0.502-0.038l-0.156,1.67c0.035,0.002,0.204,0.018,0.458,0.037
		c-0.159,1.649-0.191,3.234-0.005,4.577l1.87-0.26c-0.169-1.218-0.132-2.685,0.022-4.228c0.354,0.009,0.729,0.016,1.133,0.016
		c1.12,0,2.397-0.057,3.662-0.198l1.348,3.9l1.784-0.617l-1.239-3.583C110.476,7.024,110.681,6.996,110.871,6.948z M103.8,5.871
		c0.389-2.643,1.034-5.334,1.555-7.274l2.472,7.149C106.396,5.881,104.957,5.897,103.8,5.871z"/>
	<polygon fill="#1B1B17" points="114.715,-2.584 115.079,-2.601 115.721,-2.64 	"/>
	<path fill="#1B1B17" d="M119.664-3.18c-1.246-0.061-2.328,0.322-3.225,1.138c-0.24,0.218-0.455,0.463-0.648,0.722
		c-0.04-0.738-0.066-1.233-0.07-1.309L115.078-2.6l-1.369,0.083c0.01,0.175,0.141,2.473,0.262,5.156
		c0.141,3.107,0.201,4.823,0.188,8.215l2.015,0.007c0.01-2.823-0.029-4.508-0.124-6.758c0.052-0.934,0.453-3.483,1.742-4.657
		c0.495-0.448,1.079-0.649,1.772-0.616c0.442,0.021,0.8,0.205,1.121,0.578c1.34,1.556,1.756,5.933,1.146,12.011l2.003,0.203
		c0.695-6.917,0.15-11.468-1.622-13.527C121.536-2.69,120.654-3.131,119.664-3.18z"/>
	<path fill="#1B1B17" d="M130.466,5.375l6.925-4.343l-1.07-1.706l-6.627,4.157c0.138-3.981,0.233-8.117,0.252-8.921l-2.014-0.047
		c-0.136,5.895-0.42,15.129-0.646,16.41l1.981,0.353c0.096-0.548,0.192-2.114,0.28-4.082c3.259,2.34,4.029,3.895,4.037,3.913
		l1.841-0.821C135.324,10.058,134.398,8.138,130.466,5.375z"/>
</g>
<g>
	<polygon fill="#1B1B17" points="19.764,8.645 19.148,-4.901 17.294,-4.816 17.995,10.607 25.425,10.176 25.317,8.324 	"/>
	<path fill="#1B1B17" d="M31.109-3.575l0.002,0.034c-2.04,0.276-4.258,2.471-4.444,5.532c-0.169,2.779-0.425,6.979,3.864,8.077
		c0.333,0.086,0.663,0.128,0.986,0.128c0.777,0,1.518-0.245,2.181-0.728c2.292-1.669,3.011-5.607,3.095-6.983
		c0.087-1.438-0.652-3.125-1.93-4.403C33.737-3.047,32.37-3.65,31.109-3.575z M32.606,7.968C32.11,8.329,31.6,8.425,30.992,8.27
		c-2.602-0.666-2.666-2.976-2.472-6.166c0.14-2.324,1.872-3.808,3.009-3.817c0.653,0.067,1.374,0.458,2.021,1.106
		c0.886,0.887,1.444,2.084,1.391,2.979C34.841,4.016,34.029,6.931,32.606,7.968z"/>
	<path fill="#1B1B17" d="M48.01,4.458l-5.607,0.446l0.147,1.85l3.994-0.317c0.002,0.657-0.236,1.317-0.687,1.857
		c-0.488,0.585-1.047,0.812-1.38,0.777c-0.751-0.077-1.705-0.26-2.419-0.994c-0.945-0.97-1.295-2.707-1.042-5.163
		c0.535-5.177,3.476-5.029,3.775-4.996l1.99,0.305l0.281-1.835L45.05-3.919c-0.074-0.01-1.761-0.207-3.337,1.043
		c-1.418,1.125-2.274,3.009-2.542,5.599c-0.313,3.029,0.211,5.267,1.56,6.649c1.144,1.172,2.578,1.443,3.557,1.544
		c0.087,0.009,0.175,0.013,0.264,0.013c0.96,0,1.963-0.527,2.732-1.447c1.017-1.218,1.368-2.825,0.94-4.299L48.01,4.458z"/>
	<path fill="#1B1B17" d="M57.823,8.991c-0.799,0.016-1.63,0.026-2.418,0.03c-0.078-3.578-0.15-8.008-0.148-10.714
		c1.175-0.019,2.125-0.047,2.213-0.05l-0.055-1.855c-0.021,0-0.962,0.028-2.134,0.048c0.009-0.253,0.02-0.448,0.035-0.538
		l-1.819-0.364c-0.03,0.147-0.05,0.469-0.065,0.921c-0.992,0.001-1.915-0.013-2.408-0.062l-0.188,1.846
		c0.533,0.054,1.468,0.072,2.471,0.072c0.033,0,0.066,0,0.099,0c-0.009,3.092,0.084,7.94,0.144,10.693
		c-1.003-0.012-1.753-0.039-1.968-0.086l-0.485,1.792c0.46,0.125,2.027,0.159,3.615,0.159c1.19,0,2.394-0.02,3.15-0.035
		L57.823,8.991z"/>
</g>
<path fill="none" stroke="#1B1B17" stroke-miterlimit="10" d="M38.362,85.565l2.646-13.583"/>
<circle fill="#FFFFFF" stroke="#1B1B17" stroke-width="2" stroke-miterlimit="10" cx="41.775" cy="69.424" r="2.558"/>
<path fill="#1B1B17" d="M23.192,128.797c0,0,1.722,3.143,2.91,4.031c0.228,0.172,1.336,0.26,2.977,0.287l2.763,2.402l3.05-2.473
	c0,0,0,0,0.001,0l2.879,2.146l2.457-2.02l3.476,1.693l2.576-2.364l2.622,1.399l1.255-1.694c1.65-0.147,2.739-0.293,2.889-0.404
	c0.764-0.571,1.125-3.608,1.125-3.608L23.192,128.797z"/>
<path fill="#1B1B17" d="M37.982,86.409c-7.271-0.484-11.817,2.783-14.618,7.61l-2.57-1.727l0.86-1.382l-1.698-1.057l-2.21,3.552
	l1.698,1.057l0.822-1.32l2.618,1.758c-5.971,11.512-3.014,30.584-3.014,30.584h37.22C57.477,105.486,58.478,90.116,37.982,86.409z"
	/>
<polygon fill="#FFFFFF" stroke="#1B1B17" stroke-width="2" stroke-miterlimit="10" points="34.088,83.52 32.199,89.924 
	44.334,90.261 43.172,85.408 "/>
<path fill="#FFFFFF" d="M32.861,122.021c-2.996,0-5.425-2.623-5.425-5.856c0-3.229,2.429-5.854,5.425-5.854
	c2.997,0,5.426,2.623,5.426,5.854C38.288,119.398,35.858,122.021,32.861,122.021z"/>
<path fill="#FFFFFF" d="M47.716,122.021c-2.998,0-5.426-2.623-5.426-5.856c0-3.229,2.429-5.854,5.426-5.854
	c2.997,0,5.425,2.623,5.425,5.854C53.141,119.398,50.711,122.021,47.716,122.021z"/>
<line fill="#FFFFFF" stroke="#1B1B17" stroke-width="2" stroke-linecap="square" stroke-miterlimit="10" x1="192.882" y1="96.039" x2="202.035" y2="96.039"/>
<line fill="#FFFFFF" stroke="#1B1B17" stroke-width="2" stroke-miterlimit="10" x1="194.764" y1="102.789" x2="202.035" y2="102.789"/>
<line fill="#FFFFFF" stroke="#1B1B17" stroke-width="2" stroke-miterlimit="10" x1="194.764" y1="109.539" x2="201.946" y2="109.539"/>
<line fill="#FFFFFF" stroke="#1B1B17" stroke-width="2" stroke-miterlimit="10" x1="194.764" y1="116.414" x2="202.035" y2="116.414"/>
<line fill="#FFFFFF" stroke="#1B1B17" stroke-width="2" stroke-linecap="square" stroke-miterlimit="10" x1="192.882" y1="171.043" x2="202.035" y2="171.043"/>
<line fill="#FFFFFF" stroke="#1B1B17" stroke-width="2" stroke-miterlimit="10" x1="194.764" y1="177.793" x2="202.035" y2="177.793"/>
<line fill="#FFFFFF" stroke="#1B1B17" stroke-width="2" stroke-miterlimit="10" x1="194.764" y1="184.543" x2="201.946" y2="184.543"/>
<line fill="#FFFFFF" stroke="#1B1B17" stroke-width="2" stroke-miterlimit="10" x1="194.764" y1="191.418" x2="202.035" y2="191.418"/>
<line fill="#FFFFFF" stroke="#1B1B17" stroke-width="2" stroke-linecap="square" stroke-miterlimit="10" x1="117.882" y1="171.043" x2="127.035" y2="171.043"/>
<line fill="#FFFFFF" stroke="#1B1B17" stroke-width="2" stroke-miterlimit="10" x1="119.764" y1="177.793" x2="127.035" y2="177.793"/>
<line fill="#FFFFFF" stroke="#1B1B17" stroke-width="2" stroke-miterlimit="10" x1="119.764" y1="184.543" x2="126.946" y2="184.543"/>
<line fill="#FFFFFF" stroke="#1B1B17" stroke-width="2" stroke-miterlimit="10" x1="119.764" y1="191.418" x2="127.035" y2="191.418"/>
<line fill="#FFFFFF" stroke="#1B1B17" stroke-width="2" stroke-linecap="square" stroke-miterlimit="10" x1="42.882" y1="171.039" x2="52.035" y2="171.039"/>
<line fill="#FFFFFF" stroke="#1B1B17" stroke-width="2" stroke-miterlimit="10" x1="44.764" y1="177.789" x2="52.035" y2="177.789"/>
<line fill="#FFFFFF" stroke="#1B1B17" stroke-width="2" stroke-miterlimit="10" x1="44.764" y1="184.539" x2="51.946" y2="184.539"/>
<line fill="#FFFFFF" stroke="#1B1B17" stroke-width="2" stroke-miterlimit="10" x1="44.764" y1="191.414" x2="52.035" y2="191.414"/>
</svg>
