<?xml version="1.0" encoding="utf-8"?>
<!-- Generator: Adobe Illustrator 16.0.0, SVG Export Plug-In . SVG Version: 6.00 Build 0)  -->
<!DOCTYPE svg PUBLIC "-//W3C//DTD SVG 1.1//EN" "http://www.w3.org/Graphics/SVG/1.1/DTD/svg11.dtd">
<svg version="1.1" id="Layer_1" xmlns="http://www.w3.org/2000/svg" xmlns:xlink="http://www.w3.org/1999/xlink" x="0px" y="0px"
	 width="200px" height="180px" viewBox="0 0 200 180" enable-background="new 0 0 200 180" xml:space="preserve">
<g>
	<path fill="#1B1B17" d="M80.065,154.93c-1.085,0.241-2.701,0.391-4.377,0.482c0-0.135,0.001-0.229,0.001-0.264l-2.245-0.053
		c-0.001,0.012-0.003,0.158-0.004,0.406c-2.531,0.076-4.7,0.048-4.741,0.046l0.015,2.021c0.169,0.002,2.234,0.027,4.708-0.043
		c-0.043,3.97-0.16,11.576-0.455,13.435l2.225,0.329c0.321-2.016,0.438-9.889,0.479-13.854c1.863-0.1,3.713-0.266,4.98-0.549
		L80.065,154.93z"/>
	<path fill="#1B1B17" d="M84.045,168.064l-0.578,3.871l1.925,0.287l0.628-4.211c1.31-0.1,2.616-0.283,3.752-0.494
		c0.411-0.076,0.789-0.154,1.146-0.229c0.449,1.536,0.764,3.017,0.824,4.282l1.946-0.09c-0.066-1.397-0.398-3-0.872-4.643
		c0.254-0.064,0.42-0.115,0.457-0.126l-0.474-1.665c-0.01,0.002-0.194,0.055-0.502,0.137c-1.7-5.045-4.357-9.99-4.518-10.287
		l-1.819,0.318l-1.662,11.139c-0.261,0-0.52-0.008-0.77-0.023l-0.105,1.729C83.624,168.072,83.836,168.061,84.045,168.064z
		 M86.281,166.264l1.153-7.719c0.896,1.87,2.059,4.475,2.955,7.082C89.22,165.873,87.758,166.129,86.281,166.264z"/>
	<polygon fill="#1B1B17" points="97.77,166.896 98.146,166.869 98.807,166.812 	"/>
	<path fill="#1B1B17" d="M103.756,155.469c-1.409-0.037-2.621,0.424-3.61,1.367c-0.267,0.254-0.502,0.536-0.715,0.834
		c-0.062-0.834-0.106-1.391-0.113-1.479l-0.724,0.051l-1.545,0.129c0.016,0.199,0.223,2.791,0.43,5.816
		c0.241,3.506,0.353,5.439,0.428,9.271l2.276-0.044c-0.062-3.188-0.151-5.089-0.316-7.628c0.033-1.058,0.42-3.944,1.846-5.306
		c0.545-0.521,1.2-0.762,1.985-0.744c0.499,0.017,0.908,0.216,1.281,0.627c1.555,1.721,2.138,6.65,1.607,13.533l2.268,0.178
		c0.604-7.828-0.13-12.954-2.184-15.233C105.882,155.975,104.876,155.497,103.756,155.469z"/>
	<path fill="#1B1B17" d="M116.178,164.846l7.705-5.084l-1.253-1.9l-7.374,4.871c0.053-4.5,0.051-9.172,0.05-10.082h-2.274
		c0,6.66-0.08,17.096-0.302,18.548l2.248,0.346c0.094-0.618,0.161-2.392,0.208-4.616c3.742,2.561,4.653,4.295,4.661,4.314
		l2.058-0.977C121.788,170.008,120.69,167.863,116.178,164.846z"/>
	<polygon fill="#1B1B17" points="21.48,169.898 21.59,154.759 19.517,154.744 19.392,171.984 27.703,171.939 27.691,169.868 	"/>
	<path fill="#1B1B17" d="M34.135,156.561l0.005,0.037c-2.261,0.414-4.623,2.977-4.673,6.398c-0.045,3.109-0.116,7.809,4.725,8.811
		c0.376,0.082,0.747,0.108,1.106,0.094c0.866-0.041,1.681-0.352,2.396-0.922c2.472-1.98,3.071-6.41,3.094-7.951
		c0.022-1.606-0.888-3.451-2.379-4.812C37.094,157.014,35.539,156.411,34.135,156.561z M36.398,169.357
		c-0.535,0.43-1.099,0.562-1.783,0.42c-2.938-0.608-3.128-3.182-3.075-6.75c0.037-2.602,1.893-4.344,3.161-4.414
		c0.731,0.043,1.556,0.441,2.311,1.132c1.034,0.942,1.719,2.25,1.704,3.251C38.688,164.838,37.933,168.129,36.398,169.357z"/>
	<path fill="#1B1B17" d="M53.389,164.65l-6.231,0.785l0.258,2.057l4.439-0.559c0.036,0.731-0.195,1.479-0.671,2.106
		c-0.514,0.677-1.126,0.958-1.499,0.938c-0.842-0.049-1.916-0.203-2.749-0.984c-1.104-1.032-1.584-2.951-1.428-5.706
		c0.332-5.804,3.619-5.788,3.956-5.767l2.235,0.236l0.219-2.061l-2.261-0.239c-0.082-0.009-1.975-0.144-3.669,1.334
		c-1.524,1.328-2.382,3.478-2.547,6.377c-0.194,3.396,0.505,5.863,2.082,7.335c1.336,1.25,2.95,1.479,4.047,1.54
		c0.097,0.008,0.196,0.008,0.295,0.002c1.071-0.048,2.163-0.688,2.973-1.753c1.071-1.413,1.381-3.223,0.828-4.843L53.389,164.65z"/>
	<path fill="#1B1B17" d="M65.277,169.559c-0.892,0.059-1.817,0.112-2.697,0.156c-0.272-3.986-0.578-8.925-0.717-11.943
		c1.312-0.082,2.37-0.16,2.467-0.17l-0.157-2.062c-0.023,0.002-1.072,0.079-2.378,0.164c-0.002-0.283,0-0.502,0.011-0.604
		l-2.046-0.312c-0.027,0.167-0.033,0.523-0.026,1.029c-1.106,0.052-2.135,0.084-2.688,0.056l-0.115,2.067
		c0.598,0.033,1.641,0.004,2.76-0.047c0.036-0.002,0.073-0.004,0.111-0.006c0.148,3.448,0.502,8.854,0.71,11.92
		c-1.121,0.039-1.959,0.047-2.2,0.004l-0.45,2.025c0.521,0.116,2.269,0.072,4.042-0.009c1.327-0.062,2.669-0.144,3.512-0.2
		L65.277,169.559z"/>
	<g>
		<path fill="#1B1B17" d="M150.078,154.264l-4.377,16.887l2.056,0.529l1.131-4.367c1.567-0.336,4.14-0.834,5.783-0.949l1.519,3.822
			l1.974-0.785l-6.071-15.262L150.078,154.264z M149.483,165.016l1.837-7.076l2.534,6.365
			C152.426,164.457,150.75,164.762,149.483,165.016z"/>
		<path fill="#1B1B17" d="M162.617,154.209l-1.478-0.135l0.049,11.205l-0.229,6.25l0.854,0.197c0.927,0.217,1.756,0.315,2.488,0.305
			c1.033-0.018,1.87-0.264,2.536-0.736c0.856-0.605,1.361-1.545,1.499-2.787c0.088-0.787-0.133-1.533-0.646-2.158
			c-0.261-0.317-0.59-0.596-0.954-0.826c1.738-0.754,3.227-2.099,3.433-4.373C170.69,155.346,165.069,154.555,162.617,154.209z
			 M165.612,169.562c-0.354,0.248-1.063,0.471-2.466,0.258l0.124-3.323c1.035,0.194,2.286,0.596,2.777,1.198
			c0.152,0.184,0.204,0.354,0.179,0.574C166.126,169.198,165.738,169.471,165.612,169.562z M168.055,160.959
			c-0.224,2.466-3.146,3.074-4.747,3.229l-0.032-7.727C166.521,157.023,168.318,158.049,168.055,160.959z"/>
		<path fill="#1B1B17" d="M138.605,168.955c-0.102-4.033-0.39-12.748-0.972-14.066l-1.952,0.844
			c0.337,0.916,0.684,8.041,0.827,14.398l0.026,1.126l7.343-0.596l-0.172-2.118L138.605,168.955z"/>
		<path fill="#1B1B17" d="M177.379,163.445c-0.124-0.072-0.239-0.135-0.334-0.199l-0.214-0.137
			c-0.855-0.533-2.024-1.269-2.119-3.062c-0.078-1.456,1.734-1.706,2.028-1.74c0.365-0.062,1.61-0.127,2.088,1.734l2.058-0.529
			c-0.809-3.128-3.268-3.521-4.505-3.301c-1.404,0.161-3.938,1.18-3.789,3.946c0.152,2.896,2.15,4.146,3.107,4.75l0.188,0.118
			c0.131,0.082,0.274,0.166,0.429,0.259c0.999,0.575,1.706,1.086,1.672,2.356c-0.008,0.282-0.261,0.48-0.475,0.599
			c-0.564,0.31-1.388,0.325-1.863,0.034c-0.2-0.121-0.46-0.354-0.446-0.979l-2.128-0.054c-0.032,1.238,0.487,2.252,1.464,2.845
			c0.591,0.362,1.308,0.535,2.039,0.521c0.669-0.01,1.347-0.178,1.949-0.504c0.981-0.537,1.557-1.416,1.581-2.412
			C180.181,165.064,178.357,164.012,177.379,163.445z"/>
	</g>
</g>
<path fill="#231F20" d="M184.392,112.327c0.442-11.384,1.046-16.619,1.347-18.647h7.761v-2.826h-81.96v2.826h7.455
	c0.483,2.795,1.656,10.313,1.792,17.988l0.799-0.014l-0.015,6.883c-0.495,0.002-0.782,0.004-0.82,0.004l0.005,0.838
	c0.037,0,0.322-0.002,0.813-0.004l-0.04,18.208c-1.283,0.262-2.967,1.308-2.967,4.051h1.071c0.325,1.11,1.339,1.925,2.553,1.925
	c1.476,0,2.672-1.195,2.672-2.672c0-1.238-0.847-2.271-1.991-2.573l0-0.131c0-0.18,0.021-9.871,0.041-18.815
	c9.562-0.048,48.217-0.23,59.696-0.044l0.491,18.841l0.014,0.492c-0.682,0.526-1.129,1.344-1.129,2.273
	c0,1.592,1.291,2.883,2.883,2.883s2.883-1.291,2.883-2.883c0-0.16-0.022-0.314-0.047-0.468h0.578c0-0.825-0.299-1.531-0.864-2.041
	c-0.875-0.791-2.181-0.951-2.995-0.966l-0.472-18.105c0.375,0.009,0.703,0.019,0.971,0.029l0.033-0.838
	c-0.281-0.011-0.628-0.021-1.026-0.03l-0.162-6.208L184.392,112.327z M179.964,98.59l-26.98,9.311l-27.376-9.558L179.964,98.59z
	 M123.612,111.619l0.685-12.847l27.409,9.569l-28.793,9.937c0.005-2.367,0.01-4.643,0.015-6.647L123.612,111.619z M124.775,118.521
	l28.206-9.733l27.706,9.673C168.085,118.326,136.075,118.465,124.775,118.521z M182.577,118.232l-28.318-9.887l26.762-9.235
	l0.547,13.106l0.853,0.033L182.577,118.232z"/>
<path fill="none" stroke="#231F20" stroke-width="0.1929" stroke-miterlimit="10" d="M17.56,33.176"/>
<path fill="none" stroke="#231F20" stroke-width="0.788" stroke-miterlimit="10" d="M25.085,61.001
	c0.708,1.5,0.904,4.656-0.919,8.665s-2.594,6.76-1.338,8.839"/>
<path fill="#FFFFFF" stroke="#231F20" stroke-width="0.5788" stroke-miterlimit="10" d="M23.918,77.951l-2.17,1.103l3.549,6.631
	l1.705-0.857C27.001,84.828,24.795,79.658,23.918,77.951z"/>
<path fill="#231F20" d="M22.938,86.12c0,0,1.515-9.124,13.616-9.084c8.449-7.03,15.087,1.642,15.087,1.642s4.658-3.113,9.285,1.492
	c3.029,2.838,3.104,5.423,3.104,5.423"/>
<path fill="none" stroke="#FFFFFF" stroke-width="1.3405" stroke-miterlimit="10" d="M46.865,83.047c0,0,1.434-3.944,2.269-4.966"/>
<path fill="none" stroke="#FFFFFF" stroke-width="1.3405" stroke-miterlimit="10" d="M45.561,78.276
	c1.335,0.597,4.728,3.752,4.728,3.752"/>
<path fill="none" stroke="#FFFFFF" stroke-width="0.3351" stroke-miterlimit="10" d="M59.708,81.851
	c-1.155-0.064-1.523,0.698,0.102,1.489C61.435,84.13,60.862,81.917,59.708,81.851z"/>
<path fill="none" stroke="#FFFFFF" stroke-width="0.6703" stroke-miterlimit="10" d="M30.693,82.999c0,0,2.034,0.401,3.436-0.251"/>
<path fill="none" stroke="#FFFFFF" stroke-width="0.8633" stroke-miterlimit="10" d="M53.312,79.087c0,0,2.993,1.665,5.736,1.055"/>
<path fill="none" stroke="#231F20" stroke-width="0.8378" stroke-miterlimit="10" d="M21.75,61.084c0,0-0.069,3.995,4.624,7.892
	c4.693,3.898,4.824,4.557,4.892,6.041"/>
<path fill="#FFFFFF" stroke="#231F20" stroke-width="0.5788" stroke-miterlimit="10" d="M54.91,61.25
	c0.792,3.418-0.984,17.173-0.984,17.173s0.595,0.526,2.173,0.875c1.578,0.349,2.376,0.014,2.376,0.014s1.817-8.409,1.843-17.263
	L54.91,61.25z"/>
<path fill="none" stroke="#231F20" stroke-width="0.788" stroke-miterlimit="10" d="M53.589,74.008c0,0,2.606,0.618,6.82,0.948"/>
<path fill="none" stroke="#231F20" stroke-miterlimit="10" d="M53.767,71.383c0,0,2.348,1.15,6.769,0.905"/>
<path fill="none" stroke="#231F20" stroke-miterlimit="10" d="M53.882,68.315c0,0,3.419,0.827,6.742,0.815"/>
<path fill="none" stroke="#231F20" stroke-miterlimit="10" d="M54.376,64.998c0,0,3.685,1.364,6.248,0.945"/>
<path fill="#231F20" d="M62.383,23.006l4.335-10.493L55.773,13.44l-0.96-3.605l-38.051,7.204l1.763,4.48
	c-2.398,3.117-7.556,17.748-3.196,36.904l2.749,0.005l0.349,1.299l1.345-0.012l0.736,1.842l2.123-0.311l0.227-0.961
	c0.475,0.693,1.038,1.496,1.139,1.568c0.18,0.129,2.344-0.44,2.344-0.44l0.126-1.757l1.238-0.011l23.801-0.138l0.066,0.629
	c0,0,0.501,0.135,1.314,0.336l-0.013,2.276c0,0,3.682,1.322,9.539,1.354l0.01-1.908c0.589,0.035,1.124,0.039,1.578,0.001L64.071,60
	l1.604-0.758l0.056-0.731l2.266,0.004C67.998,58.515,70.323,33.02,62.383,23.006z"/>
<path fill="#FFFFFF" d="M61.841,57.354c0,0,1.496-15.145-5.805-21.722c-7.301-6.577-20.752-6.168-24.628,3.005
	c-3.875,9.173-2.701,19.197-2.701,19.197L61.841,57.354z"/>
<polygon fill="#231F20" points="6.612,85.405 78.39,85.399 78.751,102.727 67.439,105.205 67.571,123.833 57.047,124.686 
	52.687,109.63 35.926,109.898 32.751,128.168 19.893,127.479 19.247,105.754 7.354,104.135 "/>
<path fill="#FFFFFF" d="M33.288,86.833l25.867,0.294c0,0-3.023,5.686-10.853,5.553C40.474,92.545,34.896,89.458,33.288,86.833z"/>
<path fill="none" stroke="#231F20" stroke-width="0.788" stroke-miterlimit="10" d="M53.533,75.886c0,0,2.72,1.415,5.89,1.164"/>
<path fill="#FFFFFF" stroke="#231F20" stroke-width="0.5788" stroke-miterlimit="10" d="M32.616,74.732l-1.35,0.285l-1.255,0.126
	c0,0,0.851,5.729,0.98,7.116c0,0,0.522,0.196,1.096,0.214c0.574,0.019,1.35-0.239,1.35-0.239S33.327,77.08,32.616,74.732z"/>
<path fill="none" stroke="#FFFFFF" stroke-miterlimit="10" d="M61.885,31.056c0,0-0.78,2.533,1.762,4.444"/>
<path fill="#231F20" d="M114.343,145.64c-1.786,0-3.651-0.035-5.606-0.109c-7.528-0.283-18.501-1.501-20.155-3.733
	c-7.856-0.057-8.816-0.333-8.861-1.001c-0.043-0.639-0.08-1.19,16.777-3.371c0.582-0.075,1.158-0.147,1.729-0.217
	c-20.732-15.929-19.12-67.765-18.461-88.932c0.1-3.222,0.179-5.767,0.164-7.456c-0.049-5.302-1.23-8.841-3.416-10.233
	c-2.135-1.36-4.593-0.271-4.618-0.26l-0.349-0.762c0.117-0.054,2.884-1.293,5.409,0.31c2.476,1.571,3.759,5.251,3.812,10.938
	c0.016,1.706-0.063,4.259-0.164,7.49c-0.663,21.277-2.299,73.801,18.833,88.763c20.106-2.316,32.67-0.74,34.414,2.052
	c0.289,0.463,0.284,0.965-0.013,1.415c-0.089,0.135-0.205,0.266-0.347,0.392c0.378,0.237,0.627,0.458,0.746,0.651
	c0.176,0.287,0.181,0.592,0.012,0.836c-0.431,0.622-2.041,0.669-4.786,0.139c-0.131-0.025-0.27-0.05-0.415-0.074
	c-4.228,0.666-11.001,0.589-19.819-0.73c-3.108,0.001-6.29,0.019-9.365,0.036c-4.136,0.024-7.426,0.033-10.044,0.022
	c1.905,1.045,8.254,2.486,18.95,2.89c16.725,0.621,36.674-1.881,37.818-11.028c2.745-21.943-1.538-46.439-1.722-47.472l0.825-0.146
	c0.185,1.037,4.488,25.654,1.728,47.722C146.679,139.674,137.504,145.639,114.343,145.64z M131.277,141.991
	c1.373,0.163,2.011,0.065,2.224-0.027c-0.095-0.163-0.33-0.357-0.703-0.571C132.388,141.612,131.88,141.813,131.277,141.991z
	 M117.016,141.795c2.666,0.203,5.02,0.265,7.049,0.218C122.006,141.903,119.609,141.835,117.016,141.795z M109.347,140.907
	c8.188,0,15.843,0.125,19.638,0.711c1.193-0.187,2.143-0.426,2.84-0.696c-3.91-1.642-14.352-3.822-30.017-2.39
	c2.094,1.118,4.387,1.897,6.897,2.286c0.196,0.03,0.391,0.061,0.585,0.089C109.31,140.907,109.329,140.907,109.347,140.907z
	 M89.362,140.97c3.173,0.016,6.858-0.005,10.496-0.025c1.814-0.011,3.666-0.021,5.517-0.028c-1.789-0.547-3.454-1.301-5.009-2.242
	c-1.312,0.136-2.659,0.297-4.041,0.486C91.199,139.861,89.763,140.599,89.362,140.97z M81.167,140.694
	c1.252,0.17,3.903,0.244,7.229,0.27c0.194-0.807,1.556-1.778,7.816-2.634c1.031-0.141,2.043-0.267,3.037-0.378
	c-0.009-0.007-0.019-0.014-0.027-0.02c-0.854,0.101-1.726,0.207-2.616,0.322C86.68,139.54,82.635,140.275,81.167,140.694z
	 M111.614,137.231c10.821,0,18.042,1.799,21.078,3.259c0.203-0.137,0.352-0.277,0.445-0.419c0.117-0.177,0.117-0.324,0.001-0.51
	c-1.031-1.653-10.665-4.205-32.622-1.776c0.013,0.009,0.029,0.018,0.042,0.026C104.575,137.404,108.269,137.231,111.614,137.231z"/>
<polygon fill="#FFFFFF" stroke="#231F20" stroke-width="0.6027" stroke-miterlimit="10" points="69.762,29.404 73.333,28.667 
	73.667,30.625 70.571,31.514 "/>
<path fill="#FFFFFF" stroke="#231F20" stroke-width="0.6027" stroke-miterlimit="10" d="M71.807,31.792c0,0-0.223-0.75-0.557-1.667
	s-0.686-1.439-0.686-1.439l-7.371,2.744c0,0-0.455,0.817-0.134,1.604c0.32,0.787,0.932,1.242,0.932,1.242L71.807,31.792z"/>
<path fill="#231F20" d="M118.919,48.022c0,0-1.884,17.271,0,39.251l4.762,0.174l0.569,4.019h49.331l0.392-3.513l5.45-0.575
	l0.837-37.788c0,0-34.445-1.442-34.436-1.442C145.833,48.149,122.789,47.681,118.919,48.022z"/>
<path fill="#FFFFFF" d="M176.55,59.599l-14.03-0.235l0.107-4.689l13.971,0.822L176.55,59.599z M163.056,58.85l12.978,0.217
	l0.036-3.076l-12.931-0.762L163.056,58.85z"/>
<path fill="#FFFFFF" d="M176.747,66.369l-14.313-0.411l0.076-3.712l14.325,0.163L176.747,66.369z M162.946,65.47l13.309,0.383
	l0.066-2.947l-13.319-0.151L162.946,65.47z"/>
<polygon fill="#FFFFFF" points="176.128,73.164 162.916,72.903 162.956,69.083 176.171,68.925 "/>
<g>
	<path fill="#FFFFFF" d="M158.412,82.622c-15.157,0.854-22.499,0.682-36.315,0.274c-1.014-10.085-0.809-21.385,0.186-31.458
		c11.999-0.374,34.227,0,36.56,0.613C159.03,54.456,159.52,62.734,158.412,82.622z"/>
</g>
<path fill="none" stroke="#FFFFFF" stroke-width="0.5253" stroke-miterlimit="10" d="M165.725,78.082c0,0-2.971,1.413-0.507,3.712
	C168.333,83.459,169.346,77.365,165.725,78.082z"/>
<path fill="#FFFFFF" d="M172.984,78.082c0,0-2.721,1.413-0.465,3.712C175.372,83.459,176.301,77.365,172.984,78.082z"/>
<path fill="#231F20" d="M125.616,59.895l-0.956-0.73l1.595-2.087l-1.589-1.52l0.831-0.868c2.124,1.735,2.365,2.262,2.365,2.262
	S127.515,57.556,125.616,59.895z"/>
<path fill="none" stroke="#231F20" stroke-width="0.1621" stroke-miterlimit="10" d="M169.425,74.124"/>
<path fill="#231F20" d="M44.002,46.746c0-2.102-1.704-3.806-3.805-3.806c-2.101,0-3.805,1.704-3.805,3.806
	c0,1.542,0.918,2.869,2.237,3.467l0.229,3.243l2.662,0.086l0.241-3.327C43.082,49.619,44.002,48.291,44.002,46.746z"/>
<path fill="#231F20" d="M79.825,142.059c-19.377,0-25.09-4.713-31.468-20.561c-9.22-22.911-9.007-69.392-9.004-69.859l1.676,0.012
	c-0.003,0.463-0.213,46.617,8.883,69.222c8.878,22.06,15.503,21.494,67.061,17.108l2.691-0.229
	c28.173-4.7,31.453-48.942,31.483-49.389l1.672,0.111c-0.031,0.46-3.414,46.015-32.946,50.938l-2.758,0.237
	C100.778,141.041,88.826,142.059,79.825,142.059z"/>
</svg>
